HIERARCHY
ROOT Hips
{
  OFFSET 1.73907 43.2358 0.0522707
  CHANNELS 6 Xposition Yposition Zposition Zrotation Xrotation Yrotation
  JOINT Bip01_Pelvis
  {
    OFFSET 0 0 0
    CHANNELS 6 Xposition Yposition Zposition Zrotation Xrotation Yrotation
    JOINT BN_Tail_01
    {
      OFFSET -2.28979 -2.39917 0
      CHANNELS 6 Xposition Yposition Zposition Zrotation Xrotation Yrotation
      JOINT BN_Tail_02
      {
        OFFSET 9.67405 0 0
        CHANNELS 6 Xposition Yposition Zposition Zrotation Xrotation Yrotation
        JOINT BN_Tail_03
        {
          OFFSET 10.5192 0 -1.14441e-005
          CHANNELS 6 Xposition Yposition Zposition Zrotation Xrotation Yrotation
          JOINT BN_Tail_04
          {
            OFFSET 8.16754 0 0
            CHANNELS 6 Xposition Yposition Zposition Zrotation Xrotation Yrotation
            End Site
            {
              OFFSET 0 0 0
            }
          }
        }
      }
    }
    JOINT Bip01_Spine
    {
      OFFSET 2.25317 -0.00479889 0
      CHANNELS 6 Xposition Yposition Zposition Zrotation Xrotation Yrotation
      JOINT Bip01_R_Thigh
      {
        OFFSET -2.32652 -0.461891 -2.25534
        CHANNELS 6 Xposition Yposition Zposition Zrotation Xrotation Yrotation
        JOINT Bip01_R_Calf
        {
          OFFSET 9.47902 0 0
          CHANNELS 6 Xposition Yposition Zposition Zrotation Xrotation Yrotation
          JOINT Bip01_R_Foot
          {
            OFFSET 8.42616 0 0
            CHANNELS 6 Xposition Yposition Zposition Zrotation Xrotation Yrotation
            JOINT Bip01_R_Toe1
            {
              OFFSET 1.4015 3.97627 -1.33795
              CHANNELS 6 Xposition Yposition Zposition Zrotation Xrotation Yrotation
              JOINT Bip01_R_Toe11
              {
                OFFSET 2.94553 0 0
                CHANNELS 6 Xposition Yposition Zposition Zrotation Xrotation Yrotation
                JOINT Bip01_R_Toe1Nub
                {
                  OFFSET 2.52656 0 0
                  CHANNELS 6 Xposition Yposition Zposition Zrotation Xrotation Yrotation
                  End Site
                  {
                    OFFSET 0 0 0
                  }
                }
              }
            }
            JOINT Bip01_R_Toe0
            {
              OFFSET 2.09729 6.93129 0.0277901
              CHANNELS 6 Xposition Yposition Zposition Zrotation Xrotation Yrotation
              JOINT Bip01_R_Toe01
              {
                OFFSET 3.0714 0 0
                CHANNELS 6 Xposition Yposition Zposition Zrotation Xrotation Yrotation
                JOINT Bip01_R_Toe0Nub
                {
                  OFFSET 3.37999 0 0
                  CHANNELS 6 Xposition Yposition Zposition Zrotation Xrotation Yrotation
                  End Site
                  {
                    OFFSET 0 0 0
                  }
                }
              }
            }
          }
        }
      }
      JOINT Bip01_L_Thigh
      {
        OFFSET -2.07803 -0.462101 2.48614
        CHANNELS 6 Xposition Yposition Zposition Zrotation Xrotation Yrotation
        JOINT Bip01_L_Calf
        {
          OFFSET 9.47902 0 0
          CHANNELS 6 Xposition Yposition Zposition Zrotation Xrotation Yrotation
          JOINT Bip01_L_Foot
          {
            OFFSET 8.42617 0 0
            CHANNELS 6 Xposition Yposition Zposition Zrotation Xrotation Yrotation
            JOINT Bip01_L_Toe1
            {
              OFFSET 1.40151 3.97627 1.33796
              CHANNELS 6 Xposition Yposition Zposition Zrotation Xrotation Yrotation
              JOINT Bip01_L_Toe11
              {
                OFFSET 2.94554 0 0
                CHANNELS 6 Xposition Yposition Zposition Zrotation Xrotation Yrotation
                JOINT Bip01_L_Toe1Nub
                {
                  OFFSET 2.52656 0 0
                  CHANNELS 6 Xposition Yposition Zposition Zrotation Xrotation Yrotation
                  End Site
                  {
                    OFFSET 0 0 0
                  }
                }
              }
            }
            JOINT Bip01_L_Toe0
            {
              OFFSET 2.0973 6.93128 -0.0277834
              CHANNELS 6 Xposition Yposition Zposition Zrotation Xrotation Yrotation
              JOINT Bip01_L_Toe01
              {
                OFFSET 3.07141 0 0
                CHANNELS 6 Xposition Yposition Zposition Zrotation Xrotation Yrotation
                JOINT Bip01_L_Toe0Nub
                {
                  OFFSET 3.37999 0 0
                  CHANNELS 6 Xposition Yposition Zposition Zrotation Xrotation Yrotation
                  End Site
                  {
                    OFFSET 0 0 0
                  }
                }
              }
            }
          }
        }
      }
      JOINT Bip01_Spine1
      {
        OFFSET 6.17162 -0.00484467 0
        CHANNELS 6 Xposition Yposition Zposition Zrotation Xrotation Yrotation
        JOINT BN_R_Clavicle_01
        {
          OFFSET 6.15897 -2.02444 -2.78435
          CHANNELS 6 Xposition Yposition Zposition Zrotation Xrotation Yrotation
          JOINT BN_R_UpperArm_01
          {
            OFFSET 3.43915 0 0
            CHANNELS 6 Xposition Yposition Zposition Zrotation Xrotation Yrotation
            JOINT BN_R__Forearm_01
            {
              OFFSET 10.2529 0 0
              CHANNELS 6 Xposition Yposition Zposition Zrotation Xrotation Yrotation
              JOINT BN_R_Hand_01
              {
                OFFSET 16.2051 0 0
                CHANNELS 6 Xposition Yposition Zposition Zrotation Xrotation Yrotation
                JOINT BN_R_Finger_07
                {
                  OFFSET 2.2539 2.19923 0.192043
                  CHANNELS 6 Xposition Yposition Zposition Zrotation Xrotation Yrotation
                  End Site
                  {
                    OFFSET 0 0 0
                  }
                }
                JOINT BN_R_Finger_01
                {
                  OFFSET 2.17806 -1.99631 -0.219296
                  CHANNELS 6 Xposition Yposition Zposition Zrotation Xrotation Yrotation
                  End Site
                  {
                    OFFSET 0 0 0
                  }
                }
                JOINT BN_R_Finger_05
                {
                  OFFSET 3.30715 1.42802 0.17391
                  CHANNELS 6 Xposition Yposition Zposition Zrotation Xrotation Yrotation
                  End Site
                  {
                    OFFSET 0 0 0
                  }
                }
                JOINT BN_R_Finger_03
                {
                  OFFSET 3.93641 -0.769831 0.580946
                  CHANNELS 6 Xposition Yposition Zposition Zrotation Xrotation Yrotation
                  End Site
                  {
                    OFFSET 0 0 0
                  }
                }
              }
            }
          }
        }
        JOINT BN_L_Clavicle_01
        {
          OFFSET 6.15897 -2.02445 2.78458
          CHANNELS 6 Xposition Yposition Zposition Zrotation Xrotation Yrotation
          JOINT BN_L_UpperArm_01
          {
            OFFSET 3.43915 0 0
            CHANNELS 6 Xposition Yposition Zposition Zrotation Xrotation Yrotation
            JOINT BN_L__Forearm_01
            {
              OFFSET 10.2529 0 0
              CHANNELS 6 Xposition Yposition Zposition Zrotation Xrotation Yrotation
              JOINT BN_L_Hand_01
              {
                OFFSET 16.2051 0 0
                CHANNELS 6 Xposition Yposition Zposition Zrotation Xrotation Yrotation
                JOINT BN_L_Finger_05
                {
                  OFFSET 3.30715 -1.42803 0.173891
                  CHANNELS 6 Xposition Yposition Zposition Zrotation Xrotation Yrotation
                  End Site
                  {
                    OFFSET 0 0 0
                  }
                }
                JOINT BN_L_Finger_07
                {
                  OFFSET 2.2539 -2.19925 0.19203
                  CHANNELS 6 Xposition Yposition Zposition Zrotation Xrotation Yrotation
                  End Site
                  {
                    OFFSET 0 0 0
                  }
                }
                JOINT BN_L_Finger_01
                {
                  OFFSET 2.17804 1.99629 -0.219303
                  CHANNELS 6 Xposition Yposition Zposition Zrotation Xrotation Yrotation
                  End Site
                  {
                    OFFSET 0 0 0
                  }
                }
                JOINT BN_L_Finger_03
                {
                  OFFSET 3.9364 0.769825 0.580943
                  CHANNELS 6 Xposition Yposition Zposition Zrotation Xrotation Yrotation
                  End Site
                  {
                    OFFSET 0 0 0
                  }
                }
              }
            }
          }
        }
        JOINT Bip01_Neck
        {
          OFFSET 7.02381 -0.81237 0
          CHANNELS 6 Xposition Yposition Zposition Zrotation Xrotation Yrotation
          JOINT Bip01_Head
          {
            OFFSET 1.54249 1.14441e-005 0
            CHANNELS 6 Xposition Yposition Zposition Zrotation Xrotation Yrotation
            JOINT BN_Mouth_01
            {
              OFFSET 2.32836 0.166542 0
              CHANNELS 6 Xposition Yposition Zposition Zrotation Xrotation Yrotation
              End Site
              {
                OFFSET 0 0 0
              }
            }
            JOINT BN_R_Ear_01
            {
              OFFSET 3.4208 -0.773972 -2.25959
              CHANNELS 6 Xposition Yposition Zposition Zrotation Xrotation Yrotation
              End Site
              {
                OFFSET 0 0 0
              }
            }
            JOINT BN_L_Ear_01
            {
              OFFSET 3.4208 -0.773976 2.25975
              CHANNELS 6 Xposition Yposition Zposition Zrotation Xrotation Yrotation
              End Site
              {
                OFFSET 0 0 0
              }
            }
            JOINT Bip01_HeadNub
            {
              OFFSET 6.74789 0 0
              CHANNELS 6 Xposition Yposition Zposition Zrotation Xrotation Yrotation
              End Site
              {
                OFFSET 0 0 0
              }
            }
          }
        }
      }
    }
  }
}
MOTION
Frames:	4
Frame Time:	0.0333333
3.60739 46.2079 0.154534 59.5867 -88.9772 107.204 0 0 0 -89.9965 -3.50835e-015 -90 -2.28979 -2.39919 -9.15934e-016 169.03 81.9991 63.5509 9.67405 2.38419e-007 2.13163e-014 9.28786 0.464613 -14.4933 10.5192 8.88178e-016 -3.8147e-006 17.8752 -0.33489 -8.74976 8.16753 -2.13163e-014 -3.8147e-006 21.6123 2.18352 4.62351 2.25378 -0.004879 8.32667e-017 -4.24372 4.8729 -3.07382 -2.37088 -0.362651 -2.22761 26.7057 -16.3714 -178.537 9.47902 -7.10543e-015 -1.77636e-014 -50.201 -7.61104e-006 6.98621e-006 8.42616 3.8147e-006 -2.84217e-014 -8.83646 -15.9947 -7.86725 1.4015 3.97629 -1.33794 84.9084 -41.5238 28.7856 2.94553 -3.55272e-015 -3.8147e-006 -18.0818 0.00108092 -0.00328746 2.52656 -3.8147e-006 3.8147e-006 1.62603e-007 9.73913e-006 5.03077e-007 2.09729 6.9313 0.027813 64.7113 3.97542e-006 -8.90829e-006 3.07141 -3.8147e-006 1.9984e-015 -65.0967 -3.25543e-007 -2.09702e-007 3.38 -1.90735e-006 2.38419e-007 2.9327e-007 -8.21445e-008 -2.28118e-008 -2.11771 0.0409821 2.49661 33.1899 10.2022 -172.603 9.47902 7.6294e-006 -1.90735e-006 -29.2269 8.91934e-006 4.80506e-006 8.42616 -7.62938e-006 -0.000864983 -29.3235 -2.55856 7.37484 1.40153 3.9764 1.33755 71.8762 45.7952 -19.7622 2.94553 3.8147e-006 -1.90735e-006 -20.1068 0.00826226 -0.0189887 2.52656 -1.42109e-014 -1.90735e-006 -179.961 0.00010361 0.00520867 2.09717 6.93133 -0.0284615 53.7885 -1.7204e-006 6.87077e-007 3.0714 3.8147e-006 2.84217e-014 -76.1538 0.0128317 0.00918023 3.37998 -8.1144e-012 0.000670433 179.963 0.00550134 0.0113585 6.17171 -0.00486946 1.19209e-007 -6.34086 -2.64695 1.11463 6.15899 -2.02445 -2.78435 -177.546 11.5631 77.3344 3.43915 7.6294e-006 7.6294e-006 155.66 80.0521 -113.49 10.2529 3.8147e-006 -3.8147e-006 -47.8871 -1.72153 1.38629 16.2051 3.8147e-006 3.8147e-006 13.772 -9.04077 30.437 2.25392 2.19924 0.19203 68.5864 0.523649 9.858 2.17805 -1.99631 -0.219317 -70.8939 -0.172914 1.1866 3.30715 1.42802 0.173893 21.1686 1.49699 11.1538 3.9364 -0.769833 0.580928 -1.14022 0.479365 33.4356 6.15899 -2.02445 2.78458 1.24556 6.41366 -102.28 3.43914 -3.8147e-006 3.8147e-006 138.259 -84.1584 170.448 10.2529 -3.8147e-006 -1.90735e-006 43.934 -5.68944 7.31481 16.2051 -1.90735e-006 1.77636e-015 -25.2738 -1.55526 44.273 3.30714 -1.42803 0.173882 -21.3916 -1.33797 4.59325 2.25392 -2.19924 0.192026 -68.8707 -0.546855 10.3388 2.17806 1.9963 -0.21931 71.0703 0.184223 -1.27046 3.9364 0.76983 0.580934 0.736765 -2.829 21.6434 7.02382 -0.812382 4.7317e-007 10.998 -2.52128e-006 1.28166e-006 1.54248 7.6294e-006 8.49321e-015 -10.2356 -0.685877 -5.2106 2.10594 -0.356749 0.0332333 -60.6643 0.0492933 -178.977 3.4208 -0.773968 -2.25959 154.169 1.4878 176.187 3.42081 -0.773976 2.25975 -26.1995 1.56267 -11.8861 6.74791 -3.8147e-006 3.55272e-015 2.32843e-007 -3.88074e-008 2.48378e-008 
3.69978 46.3231 0.220962 68.3103 -88.622 114.905 0 0 0 -89.9965 -3.50835e-015 -90 -2.28979 -2.39919 -4.02456e-015 171.258 82.5528 60.9756 9.67405 2.38419e-007 2.13163e-014 5.65343 -0.463081 -8.85019 10.5192 1.77636e-015 -3.8147e-006 18.1634 -0.432544 -10.4447 8.16753 -7.99361e-015 -3.8147e-006 22.7855 2.13469 -0.804475 2.25378 -0.004879 5.55112e-017 -3.16913 4.89437 -2.77617 -2.36215 -0.321375 -2.24303 22.971 -16.5486 -179.371 9.47902 7.10543e-015 -1.95399e-014 -48.551 -7.33677e-006 7.18544e-006 8.42616 3.8147e-006 -3.19744e-014 -17.9022 -14.4994 -8.74843 1.4015 3.97629 -1.33794 83.1215 -42.2351 27.5928 2.94553 1.42109e-014 -3.8147e-006 -17.3322 0.00207972 -0.0066394 2.52656 -3.8147e-006 3.8147e-006 1.62603e-007 9.73913e-006 5.03077e-007 2.09729 6.9313 0.027813 63.2029 4.09018e-006 -8.77305e-006 3.07141 -3.8147e-006 8.88179e-016 -64.3373 -0.000910055 0.000437018 3.38 -1.90735e-006 2.38419e-007 2.9327e-007 -8.21445e-008 -2.28118e-008 -2.13319 0.0835121 2.48193 28.3823 8.69451 -172.279 9.47902 7.6294e-006 -1.90735e-006 -34.8303 8.43419e-006 5.63403e-006 8.42616 -7.62938e-006 -0.000864983 -31.4999 -3.68574 6.05679 1.40153 3.9764 1.33755 72.6053 45.6097 -20.284 2.94553 3.8147e-006 -1.90735e-006 -19.3549 0.0079854 -0.0190183 2.52656 -4.61853e-014 -1.90735e-006 -179.961 0.00010361 0.00520867 2.09717 6.93133 -0.0284615 52.2794 -1.53026e-006 6.56564e-007 3.0714 3.8147e-006 1.42109e-014 -75.3947 0.0132428 0.00893347 3.37998 -1.31024e-011 0.000670433 179.963 0.00550134 0.0113585 6.17171 -0.00486946 1.19208e-007 -5.54855 -2.62155 0.456186 6.15899 -2.02445 -2.78435 -177.53 11.6312 77.3282 3.43915 7.6294e-006 7.6294e-006 123.98 74.8186 -99.8716 10.2529 3.8147e-006 -3.8147e-006 -45.543 -1.69107 1.49782 16.2051 3.8147e-006 3.8147e-006 14.6752 -9.88 30.0019 2.25392 2.19924 0.19203 68.5531 0.517246 14.2605 2.17805 -1.99631 -0.219317 -70.8919 -0.178599 0.785649 3.30715 1.42802 0.173893 21.0465 1.48303 14.8616 3.9364 -0.769833 0.580928 -1.08534 0.502474 30.0756 6.15899 -2.02445 2.78458 1.11281 5.76528 -102.351 3.43914 -3.8147e-006 3.8147e-006 -105.769 -83.318 -89.4619 10.2529 -3.8147e-006 -1.90735e-006 44.3459 -4.62249 7.56673 16.2051 -1.90735e-006 3.55271e-015 -27.2586 0.0323909 40.1706 3.30714 -1.42803 0.173882 -21.3457 -1.32184 10.4936 2.25392 -2.19924 0.192026 -68.76 -0.535538 15.9772 2.17806 1.9963 -0.21931 71.0715 0.18464 -1.62863 3.9364 0.76983 0.580934 0.646593 -2.72065 21.8565 7.02382 -0.812382 4.73268e-007 10.998 -7.48372e-007 1.05006e-005 1.54248 7.6294e-006 9.32588e-015 -12.492 -1.1958 -4.04983 2.10594 -0.356749 0.0332333 -61.5489 -0.107453 -178.663 3.4208 -0.773968 -2.25959 153.915 1.56128 175.316 3.42081 -0.773976 2.25975 -26.625 1.74895 -11.235 6.74791 -3.8147e-006 5.32907e-015 2.32843e-007 -3.88074e-008 2.48378e-008 
3.78143 46.5182 0.284099 74.6206 -88.1088 120.305 0 0 0 -89.9965 -3.50835e-015 -90 -2.28979 -2.39919 -9.65894e-015 174.943 83.6322 56.0846 9.67405 2.38419e-007 2.84217e-014 1.554 -1.63491 -1.90173 10.5192 1.77636e-015 -3.8147e-006 17.6755 -0.593878 -12.038 8.16753 -3.10862e-015 -3.8147e-006 23.2708 1.89869 -6.85795 2.25378 -0.004879 -2.77556e-017 -1.72999 4.92283 -2.27132 -2.34516 -0.266319 -2.26834 18.3648 -16.7112 179.762 9.47902 -7.10543e-015 -1.42109e-014 -45.9655 3.17773e-007 5.37648e-007 8.42616 3.8147e-006 -4.08562e-014 -28.7709 -12.8161 -9.79306 1.4015 3.97629 -1.33794 80.6726 -43.1463 25.9318 2.94553 2.84217e-014 -3.8147e-006 -16.3281 0.00292324 -0.00995198 2.52656 -3.8147e-006 3.8147e-006 1.62603e-007 9.73913e-006 5.03077e-007 2.09729 6.9313 0.027813 61.1888 4.3394e-006 -8.58507e-006 3.07141 -3.8147e-006 4.44089e-016 -63.3283 0.00736375 -0.00369919 3.38 -1.90735e-006 2.38419e-007 2.9327e-007 -8.21445e-008 -2.28118e-008 -2.1572 0.140997 2.45836 22.2039 6.83004 -172.119 9.47902 7.6294e-006 -1.90735e-006 -40.7267 7.82717e-006 6.44477e-006 8.42616 -7.62938e-006 -0.000864983 -35.1362 -4.88046 4.14308 1.40153 3.9764 1.33755 73.5665 45.356 -20.9694 2.94553 3.8147e-006 -1.90735e-006 -18.3376 0.00497358 -0.0110919 2.52656 -4.9738e-014 -1.90735e-006 -179.961 0.00010361 0.00520867 2.09717 6.93133 -0.0284615 50.2655 -6.4208e-007 1.07929e-006 3.0714 3.8147e-006 -1.06581e-014 -74.3754 0.0151094 0.00821788 3.37998 -1.89857e-011 0.000670433 179.963 0.00550134 0.0113585 6.17171 -0.00486946 1.19207e-007 -5.04684 -2.33382 -0.743603 6.15899 -2.02445 -2.78435 -177.504 11.7375 77.3153 3.43915 7.6294e-006 7.6294e-006 94.8089 68.8041 -94.4139 10.2529 3.8147e-006 -3.8147e-006 -42.4976 -1.67005 1.53469 16.2051 3.8147e-006 3.8147e-006 15.7092 -10.6688 28.2013 2.25392 2.19924 0.19203 68.5211 0.508503 18.5774 2.17805 -1.99631 -0.219317 -70.8908 -0.184151 0.392482 3.30715 1.42802 0.173893 20.9236 1.46911 17.7169 3.9364 -0.769833 0.580928 -0.998085 0.528663 24.6001 6.15899 -2.02445 2.78458 0.909843 4.81315 -102.403 3.43914 -3.8147e-006 3.8147e-006 -61.6694 -74.0547 -66.9924 10.2529 -3.8147e-006 -1.90735e-006 44.4849 -3.15697 7.72743 16.2051 -1.90735e-006 -7.10543e-015 -28.9729 2.12368 34.2049 3.30714 -1.42803 0.173882 -21.2376 -1.3119 16.3007 2.25392 -2.19924 0.192026 -68.6531 -0.513994 21.5061 2.17806 1.9963 -0.21931 71.0751 0.183961 -2.613 3.93641 0.76983 0.580934 0.605273 -2.6595 20.3469 7.02382 -0.812382 4.7338e-007 10.998 -7.76998e-007 1.05021e-005 1.54248 7.6294e-006 1.08802e-014 -14.8009 -2.24732 -2.30607 2.10594 -0.356749 0.0332333 -63.1779 -0.312606 -178.301 3.4208 -0.773968 -2.25959 153.668 1.63701 174.462 3.42081 -0.773976 2.25975 -26.805 1.76881 -9.95126 6.74791 -3.8147e-006 5.32907e-015 2.32843e-007 -3.88074e-008 2.4838e-008 
3.83375 46.7706 0.338077 78.5662 -87.5013 123.52 0 0 0 -89.9965 -3.50835e-015 -90 -2.28979 -2.39919 -1.88183e-014 -178.043 84.9797 47.2559 9.67405 2.38419e-007 7.10543e-015 -2.40145 -2.89514 5.45243 10.5192 0 -3.8147e-006 16.6085 -0.649937 -13.2667 8.16753 -1.59872e-014 -3.8147e-006 22.9696 1.65653 -12.8098 2.25378 -0.004879 -5.55112e-017 -0.103476 4.96254 -1.65129 -2.32117 -0.204671 -2.29909 13.6086 -16.7191 178.924 9.47902 7.10543e-015 -1.77636e-014 -42.7177 5.20064e-007 5.20244e-007 8.42616 3.8147e-006 -4.44089e-014 -39.6825 -11.2269 -10.6705 1.4015 3.97629 -1.33794 78.1429 -44.0022 24.1881 2.94553 1.06581e-014 -3.8147e-006 -15.3142 0.0036703 -0.0133749 2.52656 -3.8147e-006 3.8147e-006 1.62603e-007 9.73913e-006 5.03078e-007 2.09729 6.9313 0.027813 59.1558 0.0104494 0.00622885 3.07141 -3.8147e-006 1.55431e-015 -62.3093 0.0158364 -0.00831121 3.38 -1.90735e-006 2.38419e-007 2.9327e-007 -8.21445e-008 -2.28118e-008 -2.18387 0.205661 2.42904 15.4054 4.90043 -172.212 9.47902 7.6294e-006 -1.90735e-006 -46.281 7.17099e-006 7.13855e-006 8.42616 -7.62937e-006 -0.000864983 -39.5065 -5.87148 1.86749 1.40153 3.9764 1.33755 74.5284 45.0917 -21.6522 2.94553 3.8147e-006 -1.90735e-006 -17.3103 0.00220538 -0.00293703 2.52656 -7.81597e-014 -1.90735e-006 -179.961 0.000103611 0.00520867 2.09717 6.93133 -0.0284615 48.2316 6.6307e-006 7.17571e-006 3.0714 3.8147e-006 -4.08562e-014 -73.346 0.0169817 0.00742796 3.37998 -2.44178e-011 0.000670433 179.963 0.00550134 0.0113585 6.17171 -0.00486946 1.19206e-007 -4.69303 -1.88597 -2.16023 6.15899 -2.02445 -2.78435 -177.467 11.8944 77.3034 3.43915 7.6294e-006 7.6294e-006 66.6546 62.8375 -91.5836 10.2529 3.8147e-006 -3.8147e-006 -39.292 -1.69516 1.37801 16.2051 3.8147e-006 3.8147e-006 16.5036 -11.1742 25.2854 2.25392 2.19924 0.192031 68.4895 0.497265 22.9371 2.17805 -1.99631 -0.219317 -70.8916 -0.187497 -0.572632 3.30715 1.42802 0.173894 20.9275 1.41446 19.6597 3.9364 -0.769833 0.580928 -0.899153 0.548547 17.8709 6.15899 -2.02445 2.78458 0.64627 3.6202 -102.374 3.43914 -3.8147e-006 3.8147e-006 -32.7117 -64.4551 -61.839 10.2529 -3.8147e-006 -1.90735e-006 44.4313 -1.47395 7.58779 16.2051 -1.90735e-006 3.55271e-015 -29.7669 4.41238 27.2224 3.30714 -1.42803 0.173881 -21.2207 -1.2742 21.1853 2.25392 -2.19924 0.192025 -68.5478 -0.481849 27.0896 2.17806 1.9963 -0.219309 71.0788 0.183236 -3.60712 3.9364 0.76983 0.580935 0.586163 -2.63101 17.5267 7.02382 -0.812382 4.73413e-007 10.998 -2.65274e-006 1.02292e-006 1.54248 7.6294e-006 1.37668e-014 -17.209 -3.64112 -0.321126 2.10594 -0.356749 0.0332333 -64.8217 -0.530205 -177.941 3.4208 -0.773968 -2.25959 153.627 1.66236 173.355 3.42081 -0.773976 2.25975 -26.9873 1.78476 -8.6548 6.74791 -3.8147e-006 3.10863e-015 2.32843e-007 -3.88074e-008 2.48383e-008 
